<svg xmlns="http://www.w3.org/2000/svg" width="30.386" height="24.929" viewBox="0 0 30.386 24.929">
  <path id="Path_531" data-name="Path 531" d="M40.257,25.936c-2.46-1.685-5.915-2.678-10.269-2.952-.711-.045-1.415-.067-2.093-.067-8.46,0-13.531,3.482-13.912,9.552-.417,6.641,4.808,10.793,14.334,11.392.2.012.4.021.626.026l7.112,3.959.093-1.419A6.694,6.694,0,0,1,37.4,42.7c3.578-1.894,6.622-3.611,6.918-8.319A9.057,9.057,0,0,0,40.257,25.936Zm-15.75,9.2a1.6,1.6,0,0,1-1.168.489,1.621,1.621,0,0,1-1.177-.485,1.569,1.569,0,0,1-.493-1.16,1.666,1.666,0,0,1,3.331,0A1.572,1.572,0,0,1,24.507,35.137Zm5.668,0a1.6,1.6,0,0,1-1.168.489,1.621,1.621,0,0,1-1.177-.485,1.569,1.569,0,0,1-.493-1.16,1.666,1.666,0,0,1,3.331,0A1.57,1.57,0,0,1,30.175,35.137Zm5.669,0a1.6,1.6,0,0,1-1.168.489,1.621,1.621,0,0,1-1.177-.485,1.569,1.569,0,0,1-.493-1.16,1.666,1.666,0,0,1,3.331,0A1.572,1.572,0,0,1,35.844,35.137Z" transform="translate(-13.959 -22.917)" fill="#f19329"/>
</svg>
