<svg id="Group_930" data-name="Group 930" xmlns="http://www.w3.org/2000/svg" width="91.272" height="101.2" viewBox="0 0 91.272 101.2">
  <path id="Path_550" data-name="Path 550" d="M78.5,196.383c-.632-6-1.7-10.365-3.268-13.333l-.043-.107c-.233-.838-.486-1.657-.733-2.454-.326-1.053-.633-2.047-.879-3.026l-.321-1.175a14.209,14.209,0,0,0-.527-2.011c-.837-3.75-2.708-6.809-6.083-9.973a8.4,8.4,0,0,0-.921-.821c-.306-.3-.58-.548-.848-.792a9.338,9.338,0,0,1-1.423-1.486,18.743,18.743,0,0,1-2.387-3.584l-.935-1.345c-2.112-3.378-3.485-5.482-5.176-6.378a5.838,5.838,0,0,0-3.714-.378l-.388.084-3.305-5.928a6.352,6.352,0,0,0-5.648-3.266,7.218,7.218,0,0,0-5.885,3.409l-.073.156a4.873,4.873,0,0,0-.6,3.323l4.615,26.288a15.079,15.079,0,0,0,5.391,9.12l9.143,8.283a2.655,2.655,0,0,0,.2.179,1.687,1.687,0,0,1,.419.45,5.309,5.309,0,0,1,1.164,3.417l.107,2.011a5.984,5.984,0,0,0,5.812,5.608l10.505.107a5.862,5.862,0,0,0,4.321-1.865A5.769,5.769,0,0,0,78.5,196.383ZM58.1,189.56l-.265-.266c-.172-.172-.317-.344-.46-.517-.124-.149-.248-.3-.4-.446l-9.211-8.354a11.9,11.9,0,0,1-4.243-7.054l-4.618-26.3a1.121,1.121,0,0,1,.1-1.056,3.413,3.413,0,0,1,3.009-1.827,3.12,3.12,0,0,1,2.612,1.558l3.212,5.849-.309.284a4.083,4.083,0,0,0-1.247,4.274c.514,1.647,1.772,4.808,3.737,9.392l.259.677,4.829,6.4a1.373,1.373,0,0,0,.934.6,1.594,1.594,0,0,0,1.213-.275,1.859,1.859,0,0,0,.655-1.071,1.448,1.448,0,0,0-.333-1.075l-4.4-5.793-.446-.927c-.8-1.874-2.692-6.262-3.4-8.577a1.041,1.041,0,0,1,.429-1.354,4.645,4.645,0,0,1,2.659-.949,2.037,2.037,0,0,1,.883.164c.874.437,2.127,2.288,3.868,5.136l1.007,1.744a34.7,34.7,0,0,0,2.5,3.678,13.817,13.817,0,0,0,1.616,1.66c.34.316.688.639,1.024.974.1.1.207.194.306.282a3.655,3.655,0,0,1,.582.6,15.845,15.845,0,0,1,5.158,8.277c.1.294.186.66.27,1.027.076.331.152.663.253.968l.232,1.138a27.048,27.048,0,0,0,2.106,5.993,16.192,16.192,0,0,1,1.647,4.507l.155.659Zm17.383,7.082a4.238,4.238,0,0,1-.74,1.717,2.182,2.182,0,0,1-1.288.8v.165H72.38v-.113l-9.879-.1a2.334,2.334,0,0,1-2.356-2.36l-.106-2.011a4.944,4.944,0,0,0-.05-.605,5.676,5.676,0,0,1-.058-.71v-.537h15.05l.074.449c.145.865.24,1.634.321,2.276.04.315.075.6.111.849l.013.09Z" transform="translate(-35.276 -101.56)" fill="#f1932a"/>
  <path id="Path_551" data-name="Path 551" d="M122.5,143.662a6.835,6.835,0,0,0-5.852-3.353,6.762,6.762,0,0,0-5.657,3.28l-3.169,5.886-.367-.048a8.49,8.49,0,0,0-1.134-.079,5.862,5.862,0,0,0-2.632.563c-1.681.89-3.053,2.993-5.151,6.351l-.223.335a7.561,7.561,0,0,0-.718,1.231,29.371,29.371,0,0,1-2.416,3.628,17.416,17.416,0,0,1-1.392,1.423c-.271.26-.548.524-.8.776a7.473,7.473,0,0,1-1.047.925,19.023,19.023,0,0,0-6.11,9.879,12.236,12.236,0,0,0-.421,1.887l-.334,1.237a29.868,29.868,0,0,1-1.748,5.237c-2.409,4.564-3.118,11.363-3.279,13.337a5.745,5.745,0,0,0,5.8,6.4l10.512-.107a5.9,5.9,0,0,0,5.8-5.614l.106-2.035a5.866,5.866,0,0,1,1.2-3.432,2.907,2.907,0,0,0,.465-.536l.12-.158,9.122-8.262a15.126,15.126,0,0,0,5.412-9.139l4.614-26.295a4.426,4.426,0,0,0-.575-3.064Zm-7.255,29.151a11.936,11.936,0,0,1-4.272,7.086l-9.313,8.35a6.674,6.674,0,0,0-.771.865l-.332.346H98.941v4.508h-.093c-.014.208-.014.423-.014.644l-.217,2.2a2.409,2.409,0,0,1-2.359,2.306l-10.512.108a2.272,2.272,0,0,1-1.83-.86,2.434,2.434,0,0,1-.526-1.93c.03-.219.065-.5.105-.818.08-.642.176-1.411.321-2.276l.074-.449H97.959l.861-3.435H84.527l.155-.659a17.962,17.962,0,0,1,1.661-4.533,33.052,33.052,0,0,0,1.985-5.971l.214-1.069a13.216,13.216,0,0,1,.554-2,15.831,15.831,0,0,1,5.189-8.273,7.138,7.138,0,0,0,.95-.845A19.425,19.425,0,0,0,97.76,163.6a37.292,37.292,0,0,0,2.271-3.185l.5-.762.839-1.47c1.748-2.862,3-4.715,3.874-5.151l.114-.057h.127a2.079,2.079,0,0,1,.644-.106,4.128,4.128,0,0,1,2.628.909.791.791,0,0,1,.553.388c.149.29.046.557-.1.923-.7,2.2-2.567,6.533-3.364,8.389l-.251.548-4.615,6.225a1.33,1.33,0,0,0-.228,1.076,1.423,1.423,0,0,0,.608,1.041,1.8,1.8,0,0,0,1.226.318,1.32,1.32,0,0,0,.95-.584l4.886-6.482a.889.889,0,0,1,.156-.284l.184-.367c1.747-4.08,2.879-7.108,3.555-8.916l.178-.476a4.16,4.16,0,0,0-1.272-4.26l-.284-.285,3.2-5.826a3.124,3.124,0,0,1,2.616-1.566,3.353,3.353,0,0,1,2.929,1.871,1.864,1.864,0,0,1,.184.92Z" transform="translate(-32.003 -101.568)" fill="#f1932a"/>
  <g id="Group_54" data-name="Group 54" transform="translate(18.323)">
    <path id="Path_552" data-name="Path 552" d="M83.7,127.313a1.592,1.592,0,0,0-.487-1.124,1.178,1.178,0,0,0-1.017-.39,1.706,1.706,0,0,0-1.229.5l-3.919,4.275-1.683-1.823a1.59,1.59,0,1,0-2.315,2.181l2.877,2.981a1.592,1.592,0,0,0,1.119.484,1.426,1.426,0,0,0,1.073-.429l5.19-5.519A1.477,1.477,0,0,0,83.7,127.313Z" transform="translate(-50.866 -102.63)" fill="#f1932a"/>
    <path id="Path_553" data-name="Path 553" d="M107.082,133.829v-4.293a3.6,3.6,0,0,0-2.7-3.449l-1.392-.321a4.387,4.387,0,0,1-2.944-2.554,4.531,4.531,0,0,1,.234-3.811l.767-1.207a3.376,3.376,0,0,0-.555-4.254l-2.927-3.14a3.5,3.5,0,0,0-4.268-.549l-1.169.743a4.3,4.3,0,0,1-4.051.251,4.018,4.018,0,0,1-2.452-2.968l-.317-1.37a3.512,3.512,0,0,0-3.448-2.7H77.57a3.6,3.6,0,0,0-3.448,2.7L73.8,108.3a4.386,4.386,0,0,1-2.554,2.944,4.537,4.537,0,0,1-3.81-.234l-1.207-.767a3.379,3.379,0,0,0-4.255.555l-3.02,3.02a3.506,3.506,0,0,0-.562,4.282l.744,1.168a4.341,4.341,0,0,1,.266,3.906,4.04,4.04,0,0,1-2.984,2.491l-1.37.317a3.513,3.513,0,0,0-2.7,3.448v4.293a3.718,3.718,0,0,0,2.712,3.559l1.379.318a4.388,4.388,0,0,1,2.944,2.555,4.533,4.533,0,0,1-.234,3.81l-.767,1.207a3.378,3.378,0,0,0,.555,4.255l3.021,3.019a3.5,3.5,0,0,0,4.28.563l1.17-.744a4.085,4.085,0,0,1,2.139-.6,5.149,5.149,0,0,1,1.766.334,4.037,4.037,0,0,1,2.491,2.983l.317,1.372a3.514,3.514,0,0,0,3.448,2.7h4.293a3.6,3.6,0,0,0,3.448-2.7l.322-1.394a4.384,4.384,0,0,1,2.554-2.943,4.538,4.538,0,0,1,3.809.234l1.208.767a3.375,3.375,0,0,0,4.255-.555l3.019-3.021a3.5,3.5,0,0,0,.563-4.282l-.744-1.168a4.338,4.338,0,0,1-.266-3.905,4.042,4.042,0,0,1,2.984-2.492l1.37-.317A3.511,3.511,0,0,0,107.082,133.829Zm-3.327.011-1.5.3a7.853,7.853,0,0,0-4.693,11.533l.746,1.341-3.148,3.148-1.32-.732a7.669,7.669,0,0,0-6.94-.51,7.854,7.854,0,0,0-4.514,5.218l-.294,1.475H77.559l-.3-1.5a7.677,7.677,0,0,0-4.606-5.186,7.989,7.989,0,0,0-6.943.5l-1.325.735-3.148-3.148.733-1.321a7.989,7.989,0,0,0,.509-6.94,7.859,7.859,0,0,0-5.219-4.514l-1.475-.293v-4.53l1.5-.3a7.678,7.678,0,0,0,5.186-4.607,7.99,7.99,0,0,0-.5-6.942l-.736-1.325,3.148-3.149,1.319.733a7.991,7.991,0,0,0,6.942.51,7.857,7.857,0,0,0,4.513-5.219l.294-1.475h4.528l.3,1.5a7.852,7.852,0,0,0,11.533,4.693l1.341-.747,3.148,3.149-.733,1.32a7.672,7.672,0,0,0-.509,6.94,7.858,7.858,0,0,0,5.219,4.514l1.475.294Z" transform="translate(-52.35 -104.209)" fill="#f1932a"/>
    <path id="Path_554" data-name="Path 554" d="M78.8,116.809A13.951,13.951,0,1,0,92.752,130.76,13.967,13.967,0,0,0,78.8,116.809Zm0,24.361a10.517,10.517,0,1,1,10.517-10.517A10.529,10.529,0,0,1,78.8,141.17Z" transform="translate(-51.435 -103.287)" fill="#f1932a"/>
  </g>
</svg>
