<svg xmlns="http://www.w3.org/2000/svg" width="108.5" height="101.2" viewBox="0 0 108.5 101.2">
  <g id="Group_927" data-name="Group 927" transform="translate(-78.7 -415.8)">
    <path id="Path_609" data-name="Path 609" d="M98.4,434.9l-6.6-2.7a6.15,6.15,0,0,0,0-2.7l6.6-2.7Zm2.6.7v-9.4h15.9v9.4Zm22,50v-17h23.2v15.9l2.5-.3V463.1a4.62,4.62,0,0,0-3.3-4.4l6.2-9.4a9.056,9.056,0,0,0,1.4-4.9,8.833,8.833,0,0,0-2.6-6.3h27a3.6,3.6,0,0,0,3.8-3.4v-7.6a3.6,3.6,0,0,0-3.8-3.4H148.7a4.92,4.92,0,0,0-4.7-3.6,4.815,4.815,0,0,0-2.4.7h0a5.015,5.015,0,0,0-5-5,4.908,4.908,0,0,0-4.9,4.5,5.2,5.2,0,0,0-2.5-.7,4.888,4.888,0,0,0-4.3,2.6,4.617,4.617,0,0,0-3-1.1,4.888,4.888,0,0,0-4.3,2.6H99.7c-.4,0-14.1,5.7-13.9,5.6a1.714,1.714,0,0,0,0,3.2c.2.1,13.6,5.6,13.9,5.6h17.2v8.3c0,7.9,5.7,11.8,6.3,12.5a4.646,4.646,0,0,0-2.7,4.2v21.7Zm43.6-59.4h10.8c.7,0,1.3.4,1.3.9v7.6c0,.5-.6.9-1.3.9H166.6Zm-17.7,6.9v-6.9H164v9.4H148.2A4.514,4.514,0,0,0,148.9,433.1Zm-7.4-8.1a2.4,2.4,0,0,1,4.8,0v8.1a2.369,2.369,0,0,1-2.4,2.4h-.1a2.433,2.433,0,0,1-2.4-2.4l.1-8.1Zm-7.3-4.3a2.4,2.4,0,1,1,4.8,0v12.4a2.433,2.433,0,0,1-2.4,2.4h0a2.433,2.433,0,0,1-2.4-2.4Zm-7.4,3.8a2.4,2.4,0,0,1,4.8,0v8.6a2.4,2.4,0,0,1-4.8,0Zm-7.4,1.5a2.4,2.4,0,0,1,4.8,0v7.1a2.4,2.4,0,0,1-4.8,0Zm0,20.4v-9a4.859,4.859,0,0,0,6.1-1,4.973,4.973,0,0,0,7.4,0l.1.1h0a3.25,3.25,0,0,0-1,2.4,7.383,7.383,0,0,0,7.4,7.4h5.8a1.3,1.3,0,1,0,0-2.6h-5.8a4.908,4.908,0,0,1-4.9-4.9.9.9,0,0,1,.9-.9h8.7a6.274,6.274,0,0,1,6.3,6.3,7.42,7.42,0,0,1-1,3.5l-6.9,10.6H126.4C125,456.7,119.4,453.6,119.4,446.4Zm3.5,16.7A2.112,2.112,0,0,1,125,461h19a2.112,2.112,0,0,1,2.1,2.1v3H122.9Z" fill="#f1932a"/>
    <path id="Path_608" data-name="Path 608" d="M120.5,484.8c-10.8-2.9-21.5,4-29.4,5.7a4.792,4.792,0,0,0-3.6,3.4l-1.4,5.7H83.4a4.781,4.781,0,0,0-4.7,4.8,4.7,4.7,0,0,0,4.6,4.8h35.3a8.185,8.185,0,0,0,8,7.8h12.6a8.118,8.118,0,0,0,8-7.8h35.3a4.8,4.8,0,0,0,0-9.6h-2.9l-1.2-5.5a4.735,4.735,0,0,0-3.6-3.6c-6.559-1.457-14.776-6.415-23.521-6.415a22.952,22.952,0,0,0-5.079.415c-4.4,1.1-8.9,3.7-13.3,9a29.166,29.166,0,0,0-4.937-4.907A23.218,23.218,0,0,0,120.5,484.8Zm56.4,14.8H142.5a4.7,4.7,0,0,0-4.7,4.7v.9a2.225,2.225,0,0,1-2.1,2.3h-1.6v-5.9c10.6-13.3,22.1-9,32.3-5.2.6.2,9.2,3.5,10.4,2.9Zm-2.7-6.6a2.028,2.028,0,0,1,1.6,1.6l.7,3.4c-10.9-1.2-27.6-15.4-42.4,1.6V496C147.5,478.6,162.3,490.3,174.2,493Zm-84.3,1.5a2.17,2.17,0,0,1,1.6-1.6c11.8-2.6,26.7-14.5,40.1,3v3.5c-14.9-17-31.6-2.7-42.5-1.6H89Zm-1.2,4.6a.764.764,0,0,0,.5.2c11.6-1.2,27.8-15.9,42.4,2.3v5.9H130a2.163,2.163,0,0,1-2.1-2.3v-.9a4.76,4.76,0,0,0-4.7-4.7H88.6Zm-5.4,3h39.9a2.18,2.18,0,0,1,2.1,2.1v.9a4.717,4.717,0,0,0,4.7,4.8h5.8a4.781,4.781,0,0,0,4.7-4.8v-.9a2.051,2.051,0,0,1,2.1-2.1h39.9a2.163,2.163,0,0,1,2.1,2.3,2.227,2.227,0,0,1-2.1,2.3H146a1.324,1.324,0,0,0-1.3,1.3v.7a5.773,5.773,0,0,1-5.5,5.9H126.6a5.709,5.709,0,0,1-5.5-5.9V508a1.324,1.324,0,0,0-1.3-1.3H83.3a2.31,2.31,0,0,1,0-4.6Z" fill="#f1932a"/>
  </g>
</svg>
