<svg id="Group_932" data-name="Group 932" xmlns="http://www.w3.org/2000/svg" width="101.172" height="101.2" viewBox="0 0 101.172 101.2">
  <path id="Path_555" data-name="Path 555" d="M237.666,181.882a1.714,1.714,0,0,0-1.36-1.172l-8.174-1.237-3.66-7.749a1.694,1.694,0,0,0-1.507-1,1.718,1.718,0,0,0-1.55.994l-3.656,7.752-8.177,1.24a1.712,1.712,0,0,0-1.361,1.172,1.827,1.827,0,0,0,.416,1.871l5.916,6.037-1.4,8.516a1.8,1.8,0,0,0,.727,1.782,1.625,1.625,0,0,0,1.751.1l7.312-4.017,7.312,4.017a1.611,1.611,0,0,0,1.74-.1,1.8,1.8,0,0,0,.729-1.783l-1.39-8.519,5.916-6.038A1.826,1.826,0,0,0,237.666,181.882Zm-9.354,6.01a1.841,1.841,0,0,0-.491,1.578l.963,5.876-5.053-2.776a1.642,1.642,0,0,0-1.588.006L217.1,195.35l.97-5.879a1.832,1.832,0,0,0-.491-1.579l-4.081-4.158,5.643-.861a1.709,1.709,0,0,0,1.284-.978l2.525-5.348,2.522,5.345a1.708,1.708,0,0,0,1.281.975l5.646.858Z" transform="translate(-136.592 -99.199)" fill="#f1932a"/>
  <path id="Path_556" data-name="Path 556" d="M209.715,176.07a1.726,1.726,0,0,0-1.37-1.178l-11.8-1.786-5.278-11.19a1.69,1.69,0,0,0-1.51-.991,1.8,1.8,0,0,0-1.543.995L182.939,173.1l-11.8,1.8a1.719,1.719,0,0,0-1.365,1.178,1.826,1.826,0,0,0,.417,1.864l8.539,8.713-2.021,12.293a1.76,1.76,0,0,0,1.674,2.1,1.648,1.648,0,0,0,.8-.21l10.551-5.811,10.56,5.807a1.611,1.611,0,0,0,1.745-.1,1.805,1.805,0,0,0,.728-1.787l-2.017-12.3,8.546-8.712A1.829,1.829,0,0,0,209.715,176.07Zm-11.985,8.682a1.846,1.846,0,0,0-.493,1.584l1.584,9.653-8.294-4.556a1.636,1.636,0,0,0-1.585,0l-8.288,4.559,1.59-9.656a1.837,1.837,0,0,0-.491-1.578l-6.709-6.842,9.264-1.407a1.713,1.713,0,0,0,1.287-.978l4.144-8.788,4.151,8.786a1.708,1.708,0,0,0,1.285.976l9.257,1.4Z" transform="translate(-139.146 -99.85)" fill="#f1932a"/>
  <path id="Path_560" data-name="Path 560" d="M170.582,181.884a1.71,1.71,0,0,0-1.357-1.171l-8.173-1.237-3.654-7.745a1.7,1.7,0,0,0-1.507-1,1.718,1.718,0,0,0-1.553.992l-3.656,7.752-8.173,1.237a1.691,1.691,0,0,0-1.363,1.172,1.836,1.836,0,0,0,.421,1.878l5.911,6.025-1.4,8.516a1.794,1.794,0,0,0,.724,1.777,1.647,1.647,0,0,0,1.751.1l7.309-4.017,7.309,4.017a1.624,1.624,0,0,0,1.746-.1,1.8,1.8,0,0,0,.727-1.783l-1.393-8.509,5.911-6.04A1.827,1.827,0,0,0,170.582,181.884Zm-9.348,6.007a1.839,1.839,0,0,0-.495,1.579l.96,5.871-5.043-2.771a1.638,1.638,0,0,0-1.589,0l-5.04,2.774.967-5.878a1.845,1.845,0,0,0-.492-1.584l-4.071-4.156,5.632-.853a1.709,1.709,0,0,0,1.284-.978l2.518-5.343,2.522,5.34a1.717,1.717,0,0,0,1.286.975l5.64.859Z" transform="translate(-141.049 -99.199)" fill="#f1932a"/>
  <g id="Group_52" data-name="Group 52" transform="translate(21.617 46.044)">
    <path id="Path_557" data-name="Path 557" d="M164.1,151.887a2.278,2.278,0,1,0-2.278-2.278A2.281,2.281,0,0,0,164.1,151.887Z" transform="translate(-161.286 -146.798)" fill="#f1932a"/>
    <path id="Path_558" data-name="Path 558" d="M164.13,152.453a2.811,2.811,0,1,1,2.812-2.811A2.815,2.815,0,0,1,164.13,152.453Zm0-4.556a1.745,1.745,0,1,0,1.746,1.745A1.746,1.746,0,0,0,164.13,147.9Z" transform="translate(-161.319 -146.831)" fill="#f1932a"/>
  </g>
  <path id="Path_559" data-name="Path 559" d="M220.846,147.062l.04-.1c2.19-5.486,4.668-11.69,4.668-13.809a6.778,6.778,0,0,0-6.869-6.665H202.253l.064-1.116a45.1,45.1,0,0,0-.355-10.7,15.035,15.035,0,0,0-3.267-7.526,10.574,10.574,0,0,0-8.3-3.486c-2.042.031-2.632,2.017-2.939,3.953-.129.824-.231,1.744-.341,2.725-.118,1.047-.231,2.043-.38,3.061-.8,5.447-2.4,8.766-4.908,10.147-.6.327-1.264.627-1.972.943a14.462,14.462,0,0,0-4.613,2.794l-.322.33-.372-.272a5.189,5.189,0,0,0-3.071-1H161.01a5.242,5.242,0,0,0-5.228,5.244v24.412a5.242,5.242,0,0,0,5.228,5.245h10.47a5.175,5.175,0,0,0,3.6-1.443l.334-.32.364.286a7.03,7.03,0,0,0,4.331,1.477h30.857c3.135,0,5.418-2.049,6.788-6.092C218.483,152.985,219.63,150.109,220.846,147.062Zm-47.627,8.929a1.728,1.728,0,0,1-1.738,1.755H161.01a1.728,1.728,0,0,1-1.737-1.755V131.58a1.728,1.728,0,0,1,1.737-1.755h10.47a1.728,1.728,0,0,1,1.738,1.755ZM214.454,154c-.643,1.853-1.56,3.747-3.489,3.747H180.108a3.3,3.3,0,0,1-3.4-3.168V132.455a3.655,3.655,0,0,1,1.9-3.429,18.365,18.365,0,0,1,2.512-1.268c.775-.346,1.577-.7,2.407-1.151,4.6-2.47,5.951-7.811,6.668-12.71.133-.886.239-1.794.342-2.7.138-1.184.279-2.409.484-3.554l.087-.488.494.053c3.781.4,5.983,2.967,6.927,8.071a46.961,46.961,0,0,1,.282,10.239c-.053,1.059-.1,1.976-.1,2.708a1.746,1.746,0,0,0,1.744,1.751c4.824-.018,12.483-.007,16.222,0l2.01,0a3.232,3.232,0,0,1,3.387,3.125c-.126,1.575-2.265,7.019-4.333,12.282C216.431,148.7,215.228,151.764,214.454,154Z" transform="translate(-140.069 -103.656)" fill="#f1932a"/>
</svg>
