<svg xmlns="http://www.w3.org/2000/svg" width="267.155" height="63.906" viewBox="0 0 267.155 63.906">
  <g id="Group_861" data-name="Group 861" transform="translate(-781 -5658)">
    <path id="Shape_8" data-name="Shape 8" d="M188.222,49.28l2.562-4.027a7.084,7.084,0,0,0,5.3,2.039c1.435,0,1.87-.331,1.87-.765,0-.586-1.076-.79-2.511-1.045-2.741-.485-6.764-1.224-6.764-5.379,0-3.441,2.818-5.786,7.917-5.786a10.566,10.566,0,0,1,7.788,2.676l-2.613,3.7a6.9,6.9,0,0,0-5-2.014c-1.2,0-1.973.408-1.973.969,0,.434.974.586,2.306.816,4.97.892,6.969,2.549,6.969,5.761,0,3.569-3.408,5.43-7.558,5.43C192.244,51.651,190.3,50.784,188.222,49.28ZM116.36,44.156V34.572h6V44.615c0,1.708.769,2.575,2.178,2.575,1.435,0,2.2-.867,2.2-2.575V34.572h5.969v9.585c0,5.021-2.716,7.494-8.173,7.494S116.36,49.178,116.36,44.156ZM42.372,42.984c0-5.506,3.254-8.667,8.608-8.667,5.38,0,8.583,3.161,8.583,8.667s-3.2,8.667-8.583,8.667C45.626,51.651,42.372,48.49,42.372,42.984Zm6.1,0c0,2.931.769,4.206,2.511,4.206s2.485-1.275,2.485-4.206-.743-4.206-2.485-4.206S48.47,40.052,48.47,42.984Zm-27.848,0c0-5.506,3.254-8.667,8.608-8.667,5.38,0,8.583,3.161,8.583,8.667s-3.2,8.667-8.583,8.667C23.875,51.651,20.621,48.49,20.621,42.984Zm6.1,0c0,2.931.769,4.206,2.511,4.206s2.485-1.275,2.485-4.206-.743-4.206-2.485-4.206S26.719,40.052,26.719,42.984ZM260.673,51.4l-3-5.582h-1.64V51.4h-5.842V34.572h9.172c4.509,0,6.84,1.886,6.84,5.633,0,2.473-1.025,4.13-3.049,4.971l4,6.22Zm-4.637-9.483h2.127c1.512,0,2.075-.408,2.075-1.555,0-1.122-.564-1.555-2.075-1.555h-2.127ZM231.083,51.4V34.572h14.04v4.359h-8.07v2.09h6.508v4.028h-6.508v1.988h8.378V51.4Zm-11.6,0V45.125H214.84V51.4h-5.969V34.572h5.969v6.194h4.637V34.572h5.97V51.4Zm-60.41,0V34.572h5.969V47.037H172.7V51.4Zm-21.11,0V34.572h9.684c4.279.025,6.328,1.5,6.328,4.486,0,2.014-1.2,3.518-3.818,3.875v.025c2.946.306,4.253,1.835,4.253,4,0,2.957-1.973,4.435-6.1,4.435Zm5.713-3.875h3.049c1.076,0,1.588-.408,1.588-1.249,0-.79-.512-1.2-1.588-1.2H143.67Zm0-6.424h2.613c1.076,0,1.588-.408,1.588-1.224s-.512-1.224-1.588-1.224H143.67ZM95.583,51.4V34.572h8.967c4.714,0,7.1,1.963,7.1,5.888,0,3.62-2.383,5.582-7.1,5.582h-3V51.4Zm5.969-9.432h2.024c1.46,0,2.1-.484,2.1-1.58s-.641-1.58-2.1-1.58h-2.024ZM75.165,51.4l-3.151-6.3L70.63,46.986V51.4H64.66V34.572H70.63v6.271l4.407-6.271h6.354L76.215,41.25,81.852,51.4ZM.049,51.4V34.572H9.734c4.279.025,6.328,1.5,6.328,4.486,0,2.014-1.2,3.518-3.818,3.875v.025c2.946.306,4.253,1.835,4.253,4,0,2.957-1.973,4.435-6.1,4.435Zm5.713-3.875H8.811c1.076,0,1.588-.408,1.588-1.249,0-.79-.512-1.2-1.588-1.2H5.762Zm0-6.424H8.376c1.076,0,1.588-.408,1.588-1.224S9.452,38.65,8.376,38.65H5.762ZM177.64,51.4V34.571h5.97V51.4ZM38.381,16.493V.379H48.636V17.226c0,2.838,1.227,4.217,3.644,4.217,2.461,0,3.681-1.379,3.681-4.217V.379H66.215V16.493c0,8.343-4.575,12.361-13.935,12.361S38.381,24.836,38.381,16.493ZM239.1,24.86l4.394-6.692a12.368,12.368,0,0,0,9.1,3.388c2.461,0,3.208-.551,3.208-1.271,0-.974-1.846-1.313-4.307-1.736-4.7-.8-11.6-2.033-11.6-8.936C239.893,3.9,244.727,0,253.472,0c5.537,0,9.272,1.017,13.359,4.447l-4.482,6.141a12.045,12.045,0,0,0-8.569-3.346c-2.066,0-3.384.678-3.384,1.609,0,.72,1.67.974,3.955,1.355,8.525,1.482,11.953,4.235,11.953,9.571,0,5.929-5.845,9.021-12.964,9.021C246,28.8,242.662,27.359,239.1,24.86Zm-153.111,3.6V7.7H76.714V.379H105.28V7.7H96V28.457Zm48.153,0V17.99H126.22V28.453h-10.2V.379h10.2V10.716h7.924V.379h10.2V28.453ZM20.7,28.431l-1.318-5.336H11.557l-1.362,5.336H0L9.327.379H21.779l9.377,28.051ZM14.282,12.379,13.1,16.954h4.79L15.556,7.636h-.132Zm206.158,16L215.3,19.1h-2.812v9.275H202.467V.424H218.2c7.734,0,11.733,3.134,11.733,9.359,0,4.108-1.758,6.861-5.229,8.259l6.855,10.334Zm-7.954-15.755h3.647c2.593,0,3.56-.678,3.56-2.584,0-1.864-.967-2.583-3.56-2.583h-3.647Z" transform="translate(781 5670.255)" fill="#fff"/>
    <path id="Shape_7_copy_2" data-name="Shape 7 copy 2" d="M11.025,39.46a16.222,16.222,0,0,1-5.96-3.782A16.464,16.464,0,0,1,1.307,29.64,23.665,23.665,0,0,1,0,21.563a23.661,23.661,0,0,1,1.307-8.076A16.462,16.462,0,0,1,5.064,7.449a16.222,16.222,0,0,1,5.96-3.782,22.794,22.794,0,0,1,7.917-1.309,22.735,22.735,0,0,1,7.887,1.3,16.256,16.256,0,0,1,5.506,3.348q1.27-.962,2.619-1.815a34.175,34.175,0,0,1,8.373-3.818A34.812,34.812,0,0,1,49.508.153Q52.025-.022,53.471,0L55.19.028,50.356,2.423,48.711,3.471A31.874,31.874,0,0,0,45.7,5.841h-.05l-1.371.2H44.25l-3.639.55-.573.174.573.1q.449.025,1.3,0l1.57-.174h.05l.374-.05.075-.025,1-.125-.1.076Q43.7,7.687,43.1,8.312l-.149.2-1.445,1.921h-.349q-1.42,0-1.545.025l-.324.125.324.124a9.29,9.29,0,0,0,1.5.224h.025l-.6.8v.025q-.174.275-.7,1.173l-.748,1.3a9.578,9.578,0,0,1-1.6,2.1,5.241,5.241,0,0,1-1.919,1.1,7.86,7.86,0,0,1-1.919.374l-4.86.624-1.545.349,3.015.349.05.025,2.168.224-.05.05a35.182,35.182,0,0,0-3.688.923,35.622,35.622,0,0,0-4.411,1.7h-.025l-2.318,1.223-.174.125H21.8l-2.866,1.946a49.6,49.6,0,0,1,2.293-5.139,46.059,46.059,0,0,1,2.924-4.7,5.706,5.706,0,0,0-5.255-2.748,5.847,5.847,0,0,0-4.925,2.207c-1.129,1.475-1.7,3.667-1.7,6.514s.572,5.04,1.7,6.515a5.33,5.33,0,0,0,2.088,1.657,5.161,5.161,0,0,1,1.241.093,1.254,1.254,0,0,0,.97-.267c.331-.2.6-.408.739-.221a9.428,9.428,0,0,0,2.922.284c1.9-.967,3.074-2.982,3.429-5.964a42.824,42.824,0,0,1,5.038-1.91,67.469,67.469,0,0,1,7.395-1.541c.024.478.036.968.036,1.457a23.805,23.805,0,0,1-1.3,8.077,16.448,16.448,0,0,1-3.737,6.038,16.128,16.128,0,0,1-5.94,3.782,22.721,22.721,0,0,1-7.908,1.309A22.794,22.794,0,0,1,11.025,39.46Zm6.858-11.088a1.4,1.4,0,0,1-.423-1.023,1.447,1.447,0,0,1,1.42-1.422,1.4,1.4,0,0,1,1.4,1.422,1.44,1.44,0,0,1-.4,1.023,1.406,1.406,0,0,1-1,.4A1.353,1.353,0,0,1,17.883,28.371Zm19.869-8.857-4.007-.456c.018,0,2.458-.354,3.9-.65.042.365.076.737.1,1.105h0Z" transform="translate(935.15 5658)" fill="#f1932a"/>
  </g>
</svg>
