<svg xmlns="http://www.w3.org/2000/svg" width="222" height="53.104" viewBox="0 0 222 53.104">
  <g id="logo-final" transform="translate(-144.096 -156.325)">
    <path id="Shape_8" data-name="Shape 8" d="M156.408,40.951l2.129-3.347a5.887,5.887,0,0,0,4.407,1.695c1.192,0,1.554-.275,1.554-.635,0-.487-.894-.657-2.086-.868-2.278-.4-5.621-1.017-5.621-4.47,0-2.86,2.342-4.808,6.579-4.808a8.78,8.78,0,0,1,6.472,2.224l-2.171,3.072a5.735,5.735,0,0,0-4.152-1.673c-1,0-1.639.339-1.639.8,0,.36.809.487,1.916.678,4.13.741,5.791,2.118,5.791,4.787,0,2.965-2.832,4.512-6.28,4.512C159.751,42.921,158.133,42.2,156.408,40.951ZM96.693,36.693V28.728h4.982v8.346c0,1.419.639,2.14,1.81,2.14,1.192,0,1.831-.72,1.831-2.14V28.728h4.961v7.965c0,4.173-2.257,6.228-6.791,6.228S96.693,40.866,96.693,36.693ZM35.21,35.719c0-4.575,2.7-7.2,7.153-7.2,4.471,0,7.132,2.627,7.132,7.2s-2.661,7.2-7.132,7.2C37.914,42.921,35.21,40.294,35.21,35.719Zm5.067,0c0,2.436.639,3.5,2.086,3.5s2.065-1.059,2.065-3.5-.618-3.5-2.065-3.5S40.277,33.283,40.277,35.719Zm-23.141,0c0-4.575,2.7-7.2,7.153-7.2,4.471,0,7.132,2.627,7.132,7.2s-2.661,7.2-7.132,7.2C19.84,42.921,17.136,40.294,17.136,35.719Zm5.067,0c0,2.436.639,3.5,2.086,3.5s2.065-1.059,2.065-3.5-.617-3.5-2.065-3.5S22.2,33.283,22.2,35.719Zm194.411,6.99-2.491-4.639H212.76v4.639h-4.854V28.728h7.622c3.747,0,5.684,1.567,5.684,4.681a4.049,4.049,0,0,1-2.534,4.131L222,42.709Zm-3.854-7.88h1.767c1.256,0,1.725-.339,1.725-1.292,0-.932-.468-1.292-1.725-1.292H212.76Zm-20.736,7.88V28.728h11.667v3.622h-6.706v1.737h5.408v3.347h-5.408v1.652h6.962v3.622Zm-9.643,0V37.5h-3.854v5.211h-4.96V28.728h4.96v5.147h3.854V28.728h4.961V42.709Zm-50.2,0V28.728h4.96V39.087h6.366v3.622Zm-17.542,0V28.728h8.048c3.556.021,5.259,1.25,5.259,3.728,0,1.673-1,2.923-3.172,3.22V35.7c2.448.254,3.534,1.525,3.534,3.326,0,2.457-1.64,3.686-5.067,3.686Zm4.748-3.22h2.534c.894,0,1.32-.339,1.32-1.038,0-.657-.426-1-1.32-1h-2.534Zm0-5.338h2.172c.894,0,1.32-.339,1.32-1.017s-.426-1.017-1.32-1.017h-2.172Zm-39.96,8.558V28.728h7.452c3.917,0,5.9,1.631,5.9,4.893,0,3.008-1.98,4.639-5.9,4.639H84.388v4.448Zm4.961-7.838H86.07c1.214,0,1.746-.4,1.746-1.313s-.532-1.313-1.746-1.313H84.388ZM62.46,42.709l-2.619-5.232-1.15,1.568v3.665h-4.96V28.728h4.96v5.211l3.662-5.211h5.28l-4.3,5.55,4.684,8.431Zm-62.419,0V28.728H8.088c3.555.021,5.259,1.25,5.259,3.728,0,1.673-1,2.923-3.172,3.22V35.7c2.448.254,3.534,1.525,3.534,3.326,0,2.457-1.639,3.686-5.067,3.686Zm4.748-3.22H7.322c.894,0,1.32-.339,1.32-1.038,0-.657-.426-1-1.32-1H4.788Zm0-5.338H6.96c.894,0,1.32-.339,1.32-1.017s-.426-1.017-1.32-1.017H4.788Zm142.827,8.558V28.728h4.961V42.709Zm-115.721-29V.315h8.521v14c0,2.358,1.02,3.5,3.028,3.5,2.045,0,3.059-1.146,3.059-3.5v-14h8.521V13.706c0,6.933-3.8,10.272-11.58,10.272S31.894,20.638,31.894,13.706Zm166.795,6.953,3.652-5.561a10.277,10.277,0,0,0,7.559,2.816c2.045,0,2.666-.458,2.666-1.056,0-.809-1.534-1.091-3.579-1.443-3.907-.669-9.64-1.69-9.64-7.426C199.346,3.238,203.363,0,210.63,0c4.6,0,7.7.845,11.1,3.7l-3.725,5.1a10.009,10.009,0,0,0-7.12-2.78c-1.716,0-2.812.563-2.812,1.337,0,.6,1.388.81,3.287,1.126,7.084,1.231,9.932,3.519,9.932,7.953,0,4.927-4.857,7.5-10.773,7.5C204.422,23.932,201.647,22.735,198.689,20.659ZM71.457,23.647V6.4h-7.71V.315H87.485V6.4h-7.71V23.647Zm40.014,0v-8.7h-6.585v8.7H96.41V.315h8.476V8.9h6.585V.315h8.476V23.644ZM17.2,23.625l-1.1-4.434H9.6L8.472,23.625H0L7.75.315H18.1l7.792,23.31ZM11.868,10.287l-.986,3.8h3.98L12.927,6.345h-.109ZM183.181,23.58l-4.273-7.707h-2.337V23.58h-8.325V.352h13.073c6.427,0,9.75,2.6,9.75,7.777,0,3.414-1.461,5.7-4.345,6.863l5.7,8.587Zm-6.61-13.092H179.6c2.155,0,2.958-.563,2.958-2.147,0-1.549-.8-2.147-2.958-2.147h-3.031Z" transform="translate(144.096 166.509)" fill="#6d6045"/>
    <path id="Shape_7_copy_2" data-name="Shape 7 copy 2" d="M9.161,32.79a13.48,13.48,0,0,1-4.953-3.143A13.681,13.681,0,0,1,1.086,24.63,19.665,19.665,0,0,1,0,17.918a19.662,19.662,0,0,1,1.086-6.711A13.679,13.679,0,0,1,4.208,6.19,13.48,13.48,0,0,1,9.161,3.047,18.941,18.941,0,0,1,15.74,1.96a18.892,18.892,0,0,1,6.554,1.082A13.509,13.509,0,0,1,26.87,5.823q1.055-.8,2.176-1.508A28.4,28.4,0,0,1,36,1.143,28.928,28.928,0,0,1,41.14.127Q43.232-.018,44.433,0l1.429.021-4.017,1.99-1.367.871a26.487,26.487,0,0,0-2.506,1.97H37.93l-1.139.166h-.02l-3.024.457-.476.145.476.083q.373.021,1.077,0l1.3-.145h.042l.311-.041.062-.021.828-.1-.083.063q-.973.932-1.47,1.451l-.124.166-1.2,1.6H34.2q-1.18,0-1.284.021l-.269.1.269.1a7.719,7.719,0,0,0,1.243.186h.021l-.5.664v.021q-.145.228-.58.974l-.621,1.078a7.959,7.959,0,0,1-1.326,1.742,4.355,4.355,0,0,1-1.595.912,6.531,6.531,0,0,1-1.594.311l-4.038.518-1.284.29,2.506.29.042.021,1.8.186-.042.042a29.235,29.235,0,0,0-3.065.767,29.6,29.6,0,0,0-3.665,1.41H20.2l-1.926,1.016-.145.1h-.021L15.73,21.046a41.213,41.213,0,0,1,1.905-4.271,38.274,38.274,0,0,1,2.43-3.906A4.741,4.741,0,0,0,15.7,10.586a4.859,4.859,0,0,0-4.092,1.834,8.839,8.839,0,0,0-1.414,5.413,8.839,8.839,0,0,0,1.414,5.414,4.429,4.429,0,0,0,1.735,1.377,4.289,4.289,0,0,1,1.031.077,1.042,1.042,0,0,0,.806-.222c.275-.169.5-.339.614-.184a7.835,7.835,0,0,0,2.428.236c1.583-.8,2.554-2.478,2.849-4.956a35.586,35.586,0,0,1,4.186-1.587,56.065,56.065,0,0,1,6.145-1.28c.02.4.03.8.03,1.211a19.782,19.782,0,0,1-1.079,6.712,13.668,13.668,0,0,1-3.105,5.017,13.4,13.4,0,0,1-4.936,3.143,18.88,18.88,0,0,1-6.571,1.088A18.941,18.941,0,0,1,9.161,32.79Zm5.7-9.214a1.16,1.16,0,0,1-.352-.85,1.2,1.2,0,0,1,1.18-1.182,1.167,1.167,0,0,1,1.16,1.182,1.2,1.2,0,0,1-.332.85,1.169,1.169,0,0,1-.828.332A1.124,1.124,0,0,1,14.86,23.576Zm16.511-7.36-3.329-.379c.015,0,2.043-.294,3.244-.54.035.3.063.612.085.918h0Z" transform="translate(272.191 156.325)" fill="#f1932a"/>
  </g>
</svg>
