<svg xmlns="http://www.w3.org/2000/svg" width="24.929" height="24.929" viewBox="0 0 24.929 24.929">
  <path id="Path_532" data-name="Path 532" d="M24.929,19.688a5.843,5.843,0,0,1-.177,1.248,7.037,7.037,0,0,1-.372,1.213,4.747,4.747,0,0,1-2.16,1.877A6.564,6.564,0,0,1,18,24.867a7.655,7.655,0,0,1-1.018-.221q-.567-.159-.841-.257t-.983-.363q-.708-.266-.868-.319a16.037,16.037,0,0,1-3.1-1.47,26.265,26.265,0,0,1-4.683-3.815,26.265,26.265,0,0,1-3.815-4.683,16.037,16.037,0,0,1-1.47-3.1Q1.169,10.481.9,9.773T.54,8.791q-.1-.274-.257-.841A7.651,7.651,0,0,1,.062,6.932,6.821,6.821,0,0,1,0,6,6.865,6.865,0,0,1,.9,2.709,4.747,4.747,0,0,1,2.78.549,7.033,7.033,0,0,1,3.993.177,5.843,5.843,0,0,1,5.241,0a.991.991,0,0,1,.372.053q.319.106.938,1.346.195.336.531.956T7.7,3.479q.283.5.549.947.053.071.31.443a4.947,4.947,0,0,1,.381.629,1.155,1.155,0,0,1,.124.5,1.469,1.469,0,0,1-.5.885,8.629,8.629,0,0,1-1.1.974,10.659,10.659,0,0,0-1.1.938,1.349,1.349,0,0,0-.5.814,1.2,1.2,0,0,0,.089.4,3.865,3.865,0,0,0,.15.363q.062.124.248.425t.2.336A18.584,18.584,0,0,0,9.632,15.3a18.584,18.584,0,0,0,4.161,3.081q.035.018.336.2t.425.248a3.864,3.864,0,0,0,.363.15,1.2,1.2,0,0,0,.4.089,1.349,1.349,0,0,0,.814-.5,10.662,10.662,0,0,0,.938-1.1,8.628,8.628,0,0,1,.974-1.1,1.469,1.469,0,0,1,.885-.5,1.155,1.155,0,0,1,.5.124,4.944,4.944,0,0,1,.629.381q.372.257.443.31.443.266.947.549t1.124.62q.62.336.956.531,1.239.62,1.346.938a.991.991,0,0,1,.053.372Zm0,0" fill="#f1932a"/>
</svg>
