<svg xmlns="http://www.w3.org/2000/svg" width="31.729" height="31.729" viewBox="0 0 31.729 31.729">
  <path id="Path_561" data-name="Path 561" d="M31.729,25.058a7.437,7.437,0,0,1-.225,1.589,8.956,8.956,0,0,1-.473,1.544,6.042,6.042,0,0,1-2.749,2.389,8.354,8.354,0,0,1-5.374,1.07,9.744,9.744,0,0,1-1.3-.282q-.721-.2-1.07-.327t-1.251-.462q-.9-.338-1.1-.406a20.411,20.411,0,0,1-3.944-1.87,33.429,33.429,0,0,1-5.96-4.856,33.43,33.43,0,0,1-4.856-5.96,20.411,20.411,0,0,1-1.87-3.944q-.068-.2-.406-1.1T.687,11.188q-.124-.349-.327-1.07a9.737,9.737,0,0,1-.282-1.3A8.682,8.682,0,0,1,0,7.639,8.738,8.738,0,0,1,1.149,3.448,6.042,6.042,0,0,1,3.538.7,8.952,8.952,0,0,1,5.082.225,7.437,7.437,0,0,1,6.67,0a1.261,1.261,0,0,1,.473.068Q7.549.2,8.338,1.78q.248.428.676,1.217T9.8,4.428q.361.642.7,1.206.068.09.394.563a6.3,6.3,0,0,1,.485.8,1.47,1.47,0,0,1,.158.642A1.87,1.87,0,0,1,10.9,8.766a10.983,10.983,0,0,1-1.4,1.239A13.567,13.567,0,0,0,8.1,11.2a1.716,1.716,0,0,0-.642,1.037,1.522,1.522,0,0,0,.113.507,4.919,4.919,0,0,0,.192.462q.079.158.315.541t.259.428a23.654,23.654,0,0,0,3.921,5.3,23.653,23.653,0,0,0,5.3,3.921q.045.023.428.259t.541.315a4.917,4.917,0,0,0,.462.192,1.522,1.522,0,0,0,.507.113,1.717,1.717,0,0,0,1.037-.642,13.57,13.57,0,0,0,1.194-1.4,10.981,10.981,0,0,1,1.239-1.4,1.87,1.87,0,0,1,1.127-.642,1.47,1.47,0,0,1,.642.158,6.293,6.293,0,0,1,.8.485q.473.327.563.394.563.338,1.206.7t1.431.789q.789.428,1.217.676,1.577.789,1.713,1.194a1.261,1.261,0,0,1,.068.473Zm0,0" fill="#fff"/>
</svg>
