<svg xmlns="http://www.w3.org/2000/svg" width="64.723" height="65.792" viewBox="0 0 64.723 65.792">
  <path id="Shape_4" data-name="Shape 4" d="M32.635,65.319,20.176,59.066H17.652v.59a1.77,1.77,0,0,1-1.765,1.772H0V57.885H9.415V42.527H0V38.984H28.832a1.751,1.751,0,0,1,1.249.519l6.411,6.437,23.037-4.022a4.452,4.452,0,0,1,2.995,8.229L36.85,65.183a4.4,4.4,0,0,1-4.216.135Zm-14.983-9.8h2.942a1.758,1.758,0,0,1,.793.19l12.827,6.437a.889.889,0,0,0,.858-.027L60.744,47.087a.908.908,0,0,0-.613-1.679L39.545,49l.151.152a5.1,5.1,0,1,1-7.2,7.231l-6.5-6.527,2.5-2.506,6.5,6.528a1.566,1.566,0,0,0,2.21-2.22l-9.1-9.135H17.652Zm-4.707,2.364h1.176V42.527H12.945ZM30.114,28.153a17.131,17.131,0,1,1,3.6-14.793,17.13,17.13,0,1,1-3.6,14.793Zm3.113-3.769a13.571,13.571,0,1,0,.578-3.931q-.145.736-.351,1.448A13.652,13.652,0,0,0,33.226,24.384ZM3.53,17.129a13.527,13.527,0,0,0,26.492,3.92q.143-.723.345-1.422a13.6,13.6,0,0,0-13.3-16.082A13.574,13.574,0,0,0,3.53,17.129Zm36.757,11.98v-.59h3.531v.59a2.942,2.942,0,1,0,5.884,0v-.59h3.531v.59a6.473,6.473,0,1,1-12.945,0Zm-29.7-7.255v-.59h3.53v.59a2.942,2.942,0,1,0,5.885,0v-.59h3.53v.59a6.473,6.473,0,1,1-12.945,0Zm37.933.167a4.119,4.119,0,1,1,4.119,4.135A4.132,4.132,0,0,1,48.524,22.021Zm3.53,0a.589.589,0,1,0,.589-.592A.591.591,0,0,0,52.055,22.021Zm-15.3,0a4.119,4.119,0,1,1,4.119,4.135A4.132,4.132,0,0,1,36.757,22.021Zm3.53,0a.589.589,0,1,0,.589-.592A.591.591,0,0,0,40.287,22.021ZM18.828,14.766A4.119,4.119,0,1,1,22.948,18.9,4.133,4.133,0,0,1,18.828,14.766Zm3.531,0a.589.589,0,1,0,.589-.59A.59.59,0,0,0,22.359,14.766Zm-15.3,0A4.119,4.119,0,1,1,11.18,18.9,4.133,4.133,0,0,1,7.061,14.766Zm3.53,0a.589.589,0,1,0,.589-.59A.59.59,0,0,0,10.591,14.766Z" fill="#f1932a"/>
</svg>
