<svg xmlns="http://www.w3.org/2000/svg" width="61.617" height="68.719" viewBox="0 0 61.617 68.719">
  <path id="Shape_3" data-name="Shape 3" d="M779.811,897.417a5.857,5.857,0,0,1-1.72,4.67l-16.283,16.127a12.514,12.514,0,0,1-8.835,3.576H732.867l-5.09,5.028a1.785,1.785,0,0,1-2.506,0,1.744,1.744,0,0,1,0-2.482l5.593-5.539a1.781,1.781,0,0,1,1.253-.512h20.856a8.976,8.976,0,0,0,6.371-2.609l16.283-16.127a2.375,2.375,0,0,0-.109-3.38,2.432,2.432,0,0,0-3.3,0l-12.849,12.86-.042.035a5.967,5.967,0,0,1-4.156,1.7H742.743a1.753,1.753,0,1,1,0-3.506h12.432a2.4,2.4,0,0,0,2.336-1.858,2.37,2.37,0,0,0-1.819-2.826,2.416,2.416,0,0,0-.516-.056H733.731a7.471,7.471,0,0,0-5.288,2.167l-3.129,3.092a1.782,1.782,0,0,1-2.5.187,1.746,1.746,0,0,1,0-2.663l3.129-3.092a11,11,0,0,1,7.788-3.2h21.436a5.89,5.89,0,0,1,5.472,3.632l9.019-8.933a5.994,5.994,0,0,1,8.42,0A5.871,5.871,0,0,1,779.811,897.417Zm-14.159-23.139a4.3,4.3,0,0,0-2.421-2.412l-4.552-1.781-.877-4.768a4.3,4.3,0,0,0-5-3.432c-.1.018-.2.041-.3.066l-4.75,1.185-3.54-3.345a4.334,4.334,0,0,0-6.086.141c-.069.073-.136.147-.2.224l-3.115,3.737-4.85-.645a4.3,4.3,0,0,0-4.84,3.656c-.013.1-.024.2-.03.305l-.3,4.838-4.318,2.3a4.243,4.243,0,0,0-1.714,5.785q.061.11.128.217l2.627,4.095-2.124,4.369a4.244,4.244,0,0,0,2.015,5.689c.094.045.189.086.286.124l5.465,2.139a1.776,1.776,0,0,0,2.3-.985,1.747,1.747,0,0,0-.994-2.275h0l-5.465-2.139a.755.755,0,0,1-.432-.982c.007-.016.014-.032.021-.049l2.542-5.245a1.739,1.739,0,0,0-.1-1.7l-3.15-4.908a.753.753,0,0,1,.236-1.045l.048-.028,5.175-2.762a1.752,1.752,0,0,0,.928-1.4l.368-5.806a.764.764,0,0,1,.864-.708l5.826.778a1.766,1.766,0,0,0,1.6-.617l3.745-4.488a.769.769,0,0,1,1.076-.1l.042.037,4.248,4.018a1.774,1.774,0,0,0,1.664.428l5.663-1.451a.765.765,0,0,1,.93.546c0,.017.008.033.011.05l1.1,5.715a1.757,1.757,0,0,0,1.091,1.318l5.465,2.139a.754.754,0,0,1,.395,1l-.019.041-2.541,5.244a1.738,1.738,0,0,0,.1,1.7l3.15,4.909a.753.753,0,0,1-.236,1.045l-.047.028-5.175,2.763a1.746,1.746,0,0,0-.792,2.352,1.778,1.778,0,0,0,2.375.784c.032-.016.064-.033.095-.05l5.175-2.763a4.242,4.242,0,0,0,1.734-5.779c-.047-.085-.1-.169-.149-.251l-2.626-4.095,2.124-4.369a4.239,4.239,0,0,0,.135-3.4Zm-23.22,17.53a3.208,3.208,0,0,1-2.966-1.956,1.776,1.776,0,0,0-2.319-.936,1.748,1.748,0,0,0-.945,2.3,6.741,6.741,0,0,0,6.23,4.1c3.852,0,6.754-2.7,6.754-6.311,0-1.781-.821-4.958-6.293-6.219h-.057c-3.61-.813-3.61-2.321-3.61-2.8a2.934,2.934,0,0,1,3.214-2.805,3.209,3.209,0,0,1,2.966,1.95,1.776,1.776,0,0,0,2.286,1.009,1.748,1.748,0,0,0,1.019-2.265c-.013-.033-.027-.066-.042-.1a6.707,6.707,0,0,0-4.46-3.856V872.68a1.77,1.77,0,0,0-3.54,0v1.255A6.2,6.2,0,0,0,735.713,880c0,1.781.821,4.957,6.293,6.219h.057c3.611.821,3.611,2.321,3.611,2.8-.043,1.928-1.706,2.791-3.257,2.791Z" transform="translate(-718.215 -858.613)" fill="#f1932a"/>
</svg>
