<svg xmlns="http://www.w3.org/2000/svg" width="60.478" height="72.105" viewBox="0 0 60.478 72.105">
  <path id="Shape_2" data-name="Shape 2" d="M17.539,71.458,12.3,65.082l-8.254-.617A1.775,1.775,0,0,1,2.6,61.876L9.234,49.163a4.341,4.341,0,0,0-.684-.3,8.1,8.1,0,0,1-5.6-7.7,8.448,8.448,0,0,1,.177-1.635,5.071,5.071,0,0,0,.095-.946,4.558,4.558,0,0,0-1.162-3.038,8.09,8.09,0,0,1,.007-10.8A4.546,4.546,0,0,0,3.226,21.7a4.943,4.943,0,0,0-.1-.949,8.4,8.4,0,0,1-.174-1.621,8.1,8.1,0,0,1,5.594-7.707,4.5,4.5,0,0,0,2.912-2.9A8,8,0,0,1,12.8,6.04a8.161,8.161,0,0,1,6.384-3.1,8.577,8.577,0,0,1,1.641.176A4.469,4.469,0,0,0,24.754,2.1a1.713,1.713,0,0,1,.194-.149,8.148,8.148,0,0,1,10.714.107,4.661,4.661,0,0,0,3.981,1.059,8.652,8.652,0,0,1,1.642-.177,8.167,8.167,0,0,1,6.4,3.1,8,8,0,0,1,1.337,2.485,4.5,4.5,0,0,0,2.9,2.9,8.1,8.1,0,0,1,5.6,7.7,8.482,8.482,0,0,1-.177,1.637,5.012,5.012,0,0,0-.095.942,4.559,4.559,0,0,0,1.161,3.041,8.091,8.091,0,0,1,0,10.8,4.551,4.551,0,0,0-1.158,3.038,5.006,5.006,0,0,0,.1.949,8.29,8.29,0,0,1,.176,1.623,8.1,8.1,0,0,1-5.594,7.706,4.688,4.688,0,0,0-.687.3l6.637,12.719a1.771,1.771,0,0,1-1.444,2.587l-8.253.617-5.245,6.376a1.781,1.781,0,0,1-2.953-.308L33.873,59.433a8.159,8.159,0,0,1-7.266,0L20.492,71.149A1.763,1.763,0,0,1,19.1,72.1a1.6,1.6,0,0,1-.179.01A1.82,1.82,0,0,1,17.539,71.458ZM38.458,57.094a4.576,4.576,0,0,0-1.384.276c-.074.028-.148.059-.22.092L41.9,67.129l3.275-3.98L42.12,57.3c-.223.022-.462.035-.7.036a1.745,1.745,0,0,1-.329,0l-.12-.6-.027.592c-.093-.006-.188-.01-.285-.018-.3-.027-.608-.068-.945-.131l-.17-.02a5.023,5.023,0,0,0-.829-.084ZM15.307,63.149l3.275,3.98,5.036-9.651a4.532,4.532,0,0,0-1.568-.381l-.167-.015a1.263,1.263,0,0,0-.128-.01,5.133,5.133,0,0,0-.931.095,7.725,7.725,0,0,1-2.464.131Zm33.25-10.3c-.038.077-.084.158-.13.239a8.424,8.424,0,0,1-.458.741c-.082.12-.167.241-.258.357-.149.191-.31.373-.474.55l-.091.1c-.071.078-.142.158-.219.232a8.286,8.286,0,0,1-.751.636c-.147.11-.3.207-.452.3l-.145.093-.057.035,2.808,5.382,5.152-.385L48.84,52.234Q48.71,52.548,48.557,52.847ZM7,61.13l5.152.384,2.806-5.382a8.058,8.058,0,0,1-3.318-3.895Zm18.456-6.725.128.061c.142.074.278.162.414.247l.181.113c.064.038.128.075.191.119.08.056.155.114.23.176l.208.158c.095.071.19.142.28.219l.106.088a4.6,4.6,0,0,0,6.091,0l.179-.144c.211-.174.414-.336.625-.483.3-.2.541-.349.786-.481a7.885,7.885,0,0,1,2.6-.864l.133-.014c.282-.035.536-.063.8-.07.14-.006.283,0,.428.007l.253.007c.091,0,.181,0,.273.008a8.918,8.918,0,0,1,.98.135c.225.043.423.068.613.088l.414.015a4.624,4.624,0,0,0,.645-.054,1.787,1.787,0,0,0,.244-.056l.148-.038.325.526-.169-.566a4.656,4.656,0,0,0,.511-.184,4.538,4.538,0,0,0,.5-.248,4.779,4.779,0,0,0,1.105-.9c.1-.114.162-.18.216-.247s.1-.138.148-.205c.093-.135.166-.253.233-.373l.11-.2a4.784,4.784,0,0,0,.258-.61A7.908,7.908,0,0,1,46,49.734l.074-.138c.145-.279.261-.5.394-.709A2.126,2.126,0,0,1,46.6,48.7c.179-.258.3-.44.444-.61l.1-.112a8.179,8.179,0,0,1,3.676-2.489,4.56,4.56,0,0,0,3.151-4.334,4.954,4.954,0,0,0-.107-.938,8.671,8.671,0,0,1-.165-1.636,8.094,8.094,0,0,1,2.062-5.4l.448.388-.442-.394a4.561,4.561,0,0,0,0-6.07,8.084,8.084,0,0,1-2.068-5.4,8.723,8.723,0,0,1,.162-1.624,4.936,4.936,0,0,0,.11-.961,4.558,4.558,0,0,0-3.154-4.324,8.14,8.14,0,0,1-5.176-5.162,4.466,4.466,0,0,0-.749-1.391,4.6,4.6,0,0,0-3.6-1.75,5.1,5.1,0,0,0-.942.107,8.229,8.229,0,0,1-7.055-1.891,4.6,4.6,0,0,0-6.1-.006,1.814,1.814,0,0,1-.208.159A8.019,8.019,0,0,1,20.131,6.6a5.107,5.107,0,0,0-.953-.107,4.6,4.6,0,0,0-3.586,1.747,4.473,4.473,0,0,0-.749,1.393,8.15,8.15,0,0,1-5.181,5.165,4.561,4.561,0,0,0-3.149,4.333,5.03,5.03,0,0,0,.107.938A8.733,8.733,0,0,1,6.785,21.7a8.1,8.1,0,0,1-2.062,5.4,4.556,4.556,0,0,0-.006,6.076,8.1,8.1,0,0,1,2.068,5.4,8.771,8.771,0,0,1-.163,1.626,5.025,5.025,0,0,0-.11.961,4.555,4.555,0,0,0,3.155,4.323,7.906,7.906,0,0,1,3,1.783l.1.095a7.915,7.915,0,0,1,2.076,3.285A4.57,4.57,0,0,0,17.9,53.6a4,4,0,0,0,2.217.1,8.27,8.27,0,0,1,1.652-.167A8.144,8.144,0,0,1,25.454,54.405ZM8.371,29.588A21.857,21.857,0,0,1,30.239,7.79h0a21.8,21.8,0,1,1-21.869,21.8Zm3.558,0A18.31,18.31,0,1,0,30.239,11.336,18.3,18.3,0,0,0,11.93,29.588ZM22.686,43.3a2.81,2.81,0,0,1-2.456-3.12l.8-6.585L16.5,28.746a2.806,2.806,0,0,1-.7-1.37,2.8,2.8,0,0,1,2.219-3.289l6.529-1.274,3.232-5.8a2.815,2.815,0,0,1,4.915,0l3.233,5.8,6.528,1.274a2.8,2.8,0,0,1,1.521,4.658L39.446,33.6l.8,6.584a2.807,2.807,0,0,1-3.976,2.879l-6.034-2.8-6.032,2.8a2.807,2.807,0,0,1-1.185.261A3,3,0,0,1,22.686,43.3Zm8.738-6.4,5.131,2.378-.682-5.6a2.786,2.786,0,0,1,.731-2.248l3.854-4.128-5.552-1.083a2.8,2.8,0,0,1-1.917-1.388L30.239,19.91l-2.748,4.927a2.8,2.8,0,0,1-1.917,1.39L20.022,27.31l3.853,4.128a2.786,2.786,0,0,1,.731,2.249l-.681,5.6,5.128-2.376a2.821,2.821,0,0,1,2.371,0ZM42.346,24.668h0Z" fill="#f1932a"/>
</svg>
